<svg width="719" height="705" viewBox="0 0 719 705" fill="none" xmlns="http://www.w3.org/2000/svg">
<g clip-path="url(#clip0_2502_11)">
<path d="M215.116 169.08C215.894 177.786 215.379 195.561 215.373 205.084L215.356 274.275C235.449 269.512 268.217 269.609 288.761 269.746L289.065 456.682L289.062 509.491C289.068 524.957 288.491 539.977 291.273 555.285C298.828 596.861 334.025 628.645 377.037 628.292C398.848 627.905 419.631 618.948 434.889 603.357C447.578 590.511 456.377 574.341 460.272 556.71C463.469 542.181 462.868 528.405 462.897 513.656L462.956 473.811L463.03 367.386C463.002 346.939 462.657 325.976 462.942 305.583C485.03 316.81 507.181 329.858 526.75 345.118C528.072 346.149 535.66 352.397 536.628 352.554L536.536 476.132C536.562 497.031 537.401 525.23 535.949 545.479C532.235 592.085 510.441 635.389 475.222 666.139C442.385 694.509 404.13 706.276 361.178 702.955C320.928 699.905 283.551 680.944 257.315 650.266C237.645 626.922 224.314 598.909 218.605 568.922C213.396 542.364 214.813 504.369 214.829 476.336L214.816 357.552L214.869 230.084L214.829 191.795C214.818 184.871 214.585 175.825 215.116 169.08Z" fill="url(#paint0_linear_2502_11)"/>
<path d="M215.116 169.08C215.019 124.098 233.013 80.9662 265.05 49.3902C286.635 27.9692 308.625 12.9462 338.812 5.7862C393.427 -7.1688 448.153 9.76619 487.415 49.6912C499.563 62.1342 509.663 76.4232 517.34 92.0272C541.475 140.422 536.787 186.126 536.686 238.489L536.669 348.908L536.628 352.554C535.66 352.397 528.072 346.149 526.75 345.118C507.181 329.858 485.03 316.81 462.942 305.583C462.509 294.221 462.897 280.204 462.917 268.646L462.876 202.471C462.805 164.294 465.276 131.376 435.997 101.452C420.442 85.4512 399.105 76.3802 376.791 76.2792C354.374 76.2752 332.867 85.1472 316.972 100.955C304.83 113.156 296.157 128.373 291.847 145.038C287.894 160.671 288.822 186.639 288.81 203.614L288.761 269.746C268.217 269.609 235.449 269.512 215.356 274.275L215.373 205.084C215.379 195.561 215.894 177.786 215.116 169.08Z" fill="#FEFEFE"/>
<path d="M0.0569611 362.387C5.77396 357.769 11.419 352.116 17.403 347.219C33.203 334.286 55.642 319.923 74.292 311.907L74.336 462.916L74.37 510.465C74.406 526.922 73.641 544.297 77.478 560.317C86.318 597.222 119.421 625.802 157.294 628.859C172.35 630.074 183.431 629.215 197.156 637.16C210.597 644.939 216.7 657.669 226.406 669.148C236.327 680.992 249.753 695.289 262.44 704.188L196.779 704.302C183.151 704.344 166.517 704.883 153.185 703.79C114.527 700.688 78.187 684.109 50.505 656.948C14.935 621.861 0.294969 579.938 0.0429688 530.767L0.0569611 362.387Z" fill="#FEFEFE"/>
<path d="M0.0568155 362.387L0.290824 236.898C0.281824 213.685 -0.300184 189.101 0.207816 166.019C0.899816 121.259 19.2948 78.5962 51.3678 47.3682C77.9818 21.9272 111.305 5.90025 147.985 1.33125C162.422 -0.467753 184.189 0.216248 199.292 0.204248C221.11 0.187248 243.905 -0.140756 265.667 0.337244C253.688 9.59324 242.512 19.8452 232.258 30.9822C220.86 43.3742 211.611 59.4852 197.675 67.9092C185.638 75.1852 173.13 73.9773 159.872 74.8023C137.981 76.3503 117.374 85.7123 101.808 101.182C69.2978 133.522 74.3788 172.638 74.3898 214.237L74.2918 311.907C55.6418 319.923 33.2028 334.286 17.4028 347.219C11.4188 352.116 5.77382 357.769 0.0568155 362.387Z" fill="#83A9F4"/>
<path d="M488.186 0.197148C500.375 0.0191482 512.857 0.201159 525.079 0.136159C537.657 0.0991588 550.137 -0.314849 562.695 0.512151C649.023 6.20315 716.137 80.0802 717.781 166.457C717.331 186.53 717.691 208.155 717.666 228.318L717.747 337.494C700.477 354.313 682.967 369.135 662.564 381.985C657.595 385.115 651.352 389.378 646.162 391.995C645.279 391.531 645.521 391.839 645.215 391.297L645.252 235.42L645.256 190.527C645.227 156.682 644.906 131.214 620.395 104.348C599.904 81.8882 579.29 75.2452 549.872 73.5822C546.526 68.5312 543.421 61.7102 539.667 56.0252C524.813 33.5352 509.551 16.4681 488.186 0.197148Z" fill="#FEFEFE"/>
<path d="M717.781 166.457C718.421 172.688 718.199 181.425 718.18 187.815L718.072 220.416L718.112 320.945L718.188 473.338L718.184 515.516C718.172 532.663 718.421 548.345 715.308 565.301C710.125 593.879 697.835 620.693 679.57 643.274C650.951 678.351 614.123 698.63 568.938 702.613C542.646 704.931 513.009 702.918 486.193 703.582C514.076 683.339 533.932 660.104 550.013 629.641C554.687 629.452 561.058 629.332 565.597 628.7C586.721 625.703 606.14 615.436 620.51 599.665C631.052 588.162 638.577 574.225 642.413 559.101C646.692 541.56 645.54 507.646 645.502 488.325L645.215 391.297C645.521 391.839 645.279 391.531 646.162 391.995C651.352 389.378 657.595 385.115 662.564 381.985C682.967 369.135 700.477 354.313 717.747 337.494L717.666 228.318C717.691 208.155 717.331 186.53 717.781 166.457Z" fill="#83A9F4"/>
</g>
<defs>
<linearGradient id="paint0_linear_2502_11" x1="550.872" y1="446.638" x2="208.277" y2="504.126" gradientUnits="userSpaceOnUse">
<stop stop-color="#AAC2F3"/>
<stop offset="1" stop-color="#E3E8F6"/>
</linearGradient>
<clipPath id="clip0_2502_11">
<rect width="718.232" height="704.472" fill="white"/>
</clipPath>
</defs>
</svg>
